<svg xmlns="http://www.w3.org/2000/svg" xmlns:xlink="http://www.w3.org/1999/xlink" width="189.506" height="189" viewBox="0 0 189.506 189"><defs><linearGradient id="a" y1="0.5" x2="1" y2="0.5" gradientUnits="objectBoundingBox"><stop offset="0" stop-color="#fff"/><stop offset="1" stop-color="#49c0ed"/></linearGradient></defs><g transform="translate(-178 -82.4)"><path d="M235.135,239.3A85.459,85.459,0,1,1,373.01,219.32a57.586,57.586,0,0,0-39.132-14.173c-23.674.818-50.54,32.512-67.01,36.912C250.4,246.5,235.135,239.3,235.135,239.3Z" transform="translate(-20.456 -7.572)" opacity="0.3" fill="url(#a)"/><g transform="translate(192.921 194.269)"><path d="M393.124,399.318s-.514-.553-1.5-1.542-2.491-2.412-4.428-4.111-4.348-3.716-7.195-5.811c-.712-.514-1.463-1.028-2.214-1.581-.791-.514-1.581-1.067-2.411-1.581s-1.7-1.028-2.57-1.542c-.909-.474-1.779-1.028-2.728-1.463-.949-.474-1.9-.949-2.886-1.384-.514-.2-.988-.435-1.5-.632-.514-.237-1.028-.4-1.542-.593a39.762,39.762,0,0,0-6.523-1.818,36.206,36.206,0,0,0-6.879-.632,6.4,6.4,0,0,0-.87.04h-.553l-.237.04c-.672.04-1.344.119-2.056.158l-.514.04h-.277l-.237.04c-.277.04-.593.079-.87.119-.593.079-1.186.158-1.779.277a59.83,59.83,0,0,0-14.864,4.823c-1.225.553-2.451,1.226-3.676,1.818-.593.316-1.225.672-1.818,1.028-.593.316-1.226.672-1.818,1.028-2.411,1.423-4.823,2.965-7.234,4.546-4.823,3.2-9.606,6.641-14.587,9.922a100.3,100.3,0,0,1-15.734,8.816,50.756,50.756,0,0,1-8.578,2.846c-.356.079-.751.158-1.107.237a9.189,9.189,0,0,1-1.107.2c-.751.119-1.463.237-2.214.316-.712.079-1.463.119-2.214.2-.356.04-.711.04-1.107.079h-3.321c-.633-.04-1.265-.119-1.858-.158-.633-.04-1.225-.119-1.858-.158l-1.9-.237c-1.265-.158-2.53-.316-3.676-.553-.593-.119-1.186-.2-1.739-.316-.593-.079-1.146-.2-1.7-.316a98.662,98.662,0,0,1-12.057-3.281,91.69,91.69,0,0,1-8.895-3.479c-2.411-1.067-4.269-2.016-5.495-2.688s-1.9-1.067-1.9-1.067.751.158,2.1.435c1.384.277,3.4.672,5.93,1.146,2.57.435,5.653.909,9.211,1.344,1.779.237,3.676.435,5.653.593.988.079,2.016.158,3.044.237,1.028.04,2.1.119,3.2.158,2.174.079,4.428.158,6.681.119h1.7c.593-.04,1.226-.04,1.858-.079s1.265-.04,1.858-.079h.356l.4-.039a7880.2,7880.2,0,0,1,1.66-.158c.277-.04.553-.119.83-.158.553-.119,1.107-.2,1.66-.316.553-.158,1.107-.277,1.7-.435l.83-.237c.277-.079.553-.2.83-.277a47.641,47.641,0,0,0,6.8-2.925,115.907,115.907,0,0,0,13.757-8.816c4.665-3.321,9.448-6.918,14.548-10.318,2.57-1.7,5.179-3.36,7.906-4.862,1.344-.791,2.767-1.5,4.151-2.214,1.423-.672,2.807-1.384,4.269-1.977a60.82,60.82,0,0,1,18.027-4.744c.791-.079,1.581-.119,2.372-.158.4-.04.791-.04,1.186-.079h3.756l.593.04c.4.04.751.04,1.146.079a40.111,40.111,0,0,1,8.618,1.7,48.221,48.221,0,0,1,13.8,7.116A52.294,52.294,0,0,1,378.5,380.3c1.542,1.423,2.965,2.846,4.23,4.269a69.978,69.978,0,0,1,5.969,7.551c1.5,2.174,2.53,3.993,3.242,5.218A12.015,12.015,0,0,1,393.124,399.318Z" transform="translate(-222.9 -367.1)" fill="#2b4e9e"/></g><g transform="translate(178 210.357)"><path d="M351.737,426.2s-.506-.584-1.557-1.558a39.156,39.156,0,0,0-8.449-6.113,31.36,31.36,0,0,0-4.595-2.025,28.624,28.624,0,0,0-5.451-1.363,24.626,24.626,0,0,0-3-.234h-.779a5.218,5.218,0,0,0-.779.039h-.74c-.273.039-.584.039-.857.078-.545.078-1.012.117-1.557.234a6.053,6.053,0,0,0-.818.156c-.273.039-.545.117-.818.156-1.09.234-2.18.545-3.271.9a45.484,45.484,0,0,0-6.619,2.8c-1.129.545-2.219,1.168-3.349,1.791-1.129.662-2.219,1.324-3.349,2.064-2.258,1.4-4.517,2.959-6.814,4.595-2.3,1.6-4.634,3.31-7.009,5.023s-4.828,3.465-7.32,5.179a143.208,143.208,0,0,1-15.925,9.7,79.689,79.689,0,0,1-8.761,3.855,62.657,62.657,0,0,1-9.228,2.687,65.205,65.205,0,0,1-9.423,1.285,57.4,57.4,0,0,1-9.345-.311,62.309,62.309,0,0,1-8.761-1.791,76.033,76.033,0,0,1-7.943-2.765,96.554,96.554,0,0,1-13.472-6.931,118.419,118.419,0,0,1-10.4-7.242c-2.959-2.336-5.412-4.478-7.4-6.308s-3.465-3.349-4.439-4.361c-.506-.506-.857-.935-1.129-1.207-.234-.273-.389-.428-.389-.428s.156.117.467.311.779.506,1.363.934c1.168.818,2.959,1.947,5.218,3.349s5.023,3.076,8.216,4.867c1.6.9,3.31,1.83,5.14,2.765,1.83.973,3.738,1.908,5.763,2.842a107.833,107.833,0,0,0,13.316,5.256,71.61,71.61,0,0,0,7.437,1.986,56.824,56.824,0,0,0,7.787,1.129,42.52,42.52,0,0,0,8.021-.078,54.179,54.179,0,0,0,8.177-1.324c1.363-.311,2.726-.7,4.049-1.09,1.363-.428,2.687-.857,4.049-1.4q1.986-.759,3.972-1.635c1.324-.584,2.648-1.207,3.933-1.83a167.129,167.129,0,0,0,15.263-8.878c2.492-1.6,4.984-3.193,7.437-4.789,2.492-1.6,4.945-3.154,7.4-4.672,2.492-1.519,4.984-2.959,7.476-4.283a82.468,82.468,0,0,1,7.593-3.5,48.254,48.254,0,0,1,7.71-2.3,33.568,33.568,0,0,1,3.816-.584c.311-.039.623-.039.935-.078.311,0,.623-.039.934-.039a14.974,14.974,0,0,1,1.869,0c.273,0,.584.039.857.039h.428l.467.039c.311.039.584.039.9.078s.584.078.857.117a29.961,29.961,0,0,1,3.349.662,29,29,0,0,1,5.8,2.18,34.43,34.43,0,0,1,8.1,5.685,41.153,41.153,0,0,1,4.205,4.633A9.873,9.873,0,0,1,351.737,426.2Z" transform="translate(-178 -411.025)" fill="#49c0ed"/></g><path d="M316.432,300.573a3.638,3.638,0,0,1,1.947,1.947c10.318-4.595,21.065-9.267,31.033-13.355-6.347-1.012-11.993-1.947-16.977-2.765-16.977-2.842-26.321-4.4-31.967-4.4a12.9,12.9,0,0,0-5.451.9c-3.388,1.558-5.607,2.8-5.685,2.842l-3.232,1.791,3.387,1.441C289.682,289.087,311.565,298.431,316.432,300.573Z" transform="translate(-66.009 -121.882)" fill="#2b4e9e"/><path d="M392.861,283.163c-.857-3.621-4.906-4.244-14.757-5.685a6.451,6.451,0,0,0-.935-.078c-10.2,0-56.069,20.169-79.509,30.8-1.051-.467-2.1-.9-3.076-1.324-9.384-3.972-14.524-6.191-18.651-6.191a9.284,9.284,0,0,0-3.465.623l-.117.039-5.451,2.92,19.9,15.185s8.994-.234,10.747-.273a115.7,115.7,0,0,0,39.132-7.515c9.267-3.465,14.017-5.3,30.682-11.837C390.1,290.911,393.8,287.212,392.861,283.163Z" transform="translate(-54.285 -119.073)" fill="#2b4e9e"/><g transform="translate(237.963 137.486)"><path d="M382.034,245.338s-.117-.195-.389-.584c-.234-.389-.623-.934-1.129-1.635s-1.129-1.519-1.83-2.453c-.74-.934-1.6-1.908-2.531-2.959a40.156,40.156,0,0,0-7.2-6.308c-.74-.467-1.48-.935-2.258-1.324-.389-.195-.779-.428-1.168-.584l-.584-.273c-.195-.078-.428-.156-.623-.234s-.428-.156-.623-.234l-.623-.195c-.428-.156-.857-.273-1.285-.389-.428-.156-.857-.195-1.285-.312l-.273-.078-.35-.039-.74-.117-.35-.078-.312-.039-.662-.078c-.428-.039-.9-.039-1.324-.078a20.643,20.643,0,0,0-2.687.078c-.9.078-1.752.195-2.648.35-.428.078-.857.195-1.285.273-.428.117-.857.234-1.246.312a37.831,37.831,0,0,0-8.761,3.816c-1.246.7-2.336,1.441-3.31,2.1s-1.791,1.285-2.453,1.791-1.207.934-1.557,1.246-.545.467-.545.467.117-.195.389-.584.662-.935,1.207-1.6,1.246-1.48,2.1-2.336a35.957,35.957,0,0,1,3-2.726,31.068,31.068,0,0,1,8.956-5.1c.467-.156.9-.312,1.363-.467.467-.117.935-.273,1.441-.389a24.042,24.042,0,0,1,3-.545,20.356,20.356,0,0,1,3.076-.156c.506.039,1.012,0,1.557.078l.818.078.389.039.35.039.7.117.35.078h.156l.078.039.195.039c.506.117,1.012.234,1.519.389s1.012.273,1.48.467l.74.273a5.518,5.518,0,0,1,.7.311c.234.117.467.195.7.311l.662.35c.467.234.9.506,1.324.74a29,29,0,0,1,2.414,1.635,30.925,30.925,0,0,1,4.01,3.738,39.861,39.861,0,0,1,3,3.816,29.058,29.058,0,0,1,2.064,3.5c.584,1.051.973,2.025,1.324,2.8s.545,1.441.7,1.869C381.956,245.1,382.034,245.338,382.034,245.338Z" transform="translate(-332 -223.874)" fill="#fbb615"/></g><g transform="translate(262.982 109.033)"><path d="M398.648,150.8a.963.963,0,0,1,.156.234,4.6,4.6,0,0,1,.428.7,7.49,7.49,0,0,1,.584,1.129c.195.428.428.973.623,1.519a12.354,12.354,0,0,1,.506,1.908,4.908,4.908,0,0,1,.156,1.09c.039.389.078.779.078,1.168v.623c0,.195-.039.428-.039.623-.039.195-.039.428-.078.623a3.648,3.648,0,0,1-.156.623,8.612,8.612,0,0,1-1.012,2.492,7.83,7.83,0,0,0-.545.973c-.117.311-.234.545-.35.857a15.841,15.841,0,0,0-.506,1.947,8.438,8.438,0,0,0-.156.973c0,.156-.039.312-.039.467a1.9,1.9,0,0,1-.039.467c0,.156-.039.312-.039.467v2.18a4.471,4.471,0,0,0,.039.74c.039.467.039.9.078,1.246.039.7.078,1.09.078,1.09a.964.964,0,0,1-.156-.234c-.078-.156-.234-.389-.389-.7s-.35-.7-.545-1.168c-.078-.234-.195-.467-.273-.74s-.195-.545-.273-.818c-.078-.311-.156-.584-.234-.934a7.889,7.889,0,0,1-.156-1.012c-.039-.35-.078-.7-.117-1.09a11.669,11.669,0,0,1,0-1.168,10.176,10.176,0,0,1,.934-3.777l.584-1.051a5.69,5.69,0,0,0,.779-1.791,2.193,2.193,0,0,1,.156-.467,8074.227,8074.227,0,0,1,.156-1.012c0-.156.039-.35.039-.506a16.6,16.6,0,0,0,.078-1.947c0-.623-.039-1.246-.078-1.83s-.078-1.09-.156-1.558c-.039-.467-.117-.9-.156-1.207A3.618,3.618,0,0,0,398.648,150.8Z" transform="translate(-396.256 -150.8)" fill="#fbb615"/></g><g transform="translate(240.901 119.468)"><path d="M339.605,177.6s.117.273.389.779c.117.234.273.545.428.9s.35.7.545,1.09a19.93,19.93,0,0,0,1.558,2.492,3.638,3.638,0,0,0,.506.584l.273.273c.078.078.195.156.273.234s.195.156.273.234c.117.078.195.117.312.195a3.222,3.222,0,0,0,.623.35c.273.156.584.311.857.467.311.234.662.467.935.7a7.172,7.172,0,0,1,.74.779,6.207,6.207,0,0,1,.584.818,8.748,8.748,0,0,1,.467.818,3.7,3.7,0,0,1,.35.818q.292.818.467,1.519a9.515,9.515,0,0,1,.234,1.324,9.854,9.854,0,0,1,.039,1.012,3.155,3.155,0,0,1-.039.662.565.565,0,0,1-.039.234s-.156-.273-.428-.779c-.117-.234-.311-.545-.467-.857a3.562,3.562,0,0,0-.312-.506,4.275,4.275,0,0,0-.35-.545,5.082,5.082,0,0,0-.389-.584c-.117-.195-.273-.389-.389-.584a1.363,1.363,0,0,1-.195-.311c-.078-.117-.156-.195-.234-.312s-.156-.195-.234-.311a1.8,1.8,0,0,0-.273-.273,9.215,9.215,0,0,0-1.09-1.051c-.195-.156-.35-.234-.545-.389-.273-.117-.506-.273-.779-.389a5.853,5.853,0,0,1-.973-.584,4.132,4.132,0,0,1-.428-.35,3.668,3.668,0,0,1-.389-.389,3.168,3.168,0,0,1-.35-.389c-.117-.156-.195-.273-.311-.428a6.192,6.192,0,0,1-.506-.857,8.548,8.548,0,0,1-.7-1.674,12.6,12.6,0,0,1-.35-1.557,10.281,10.281,0,0,1-.117-2.336,2.8,2.8,0,0,1,.078-.662A.137.137,0,0,1,339.605,177.6Z" transform="translate(-339.545 -177.6)" fill="#fbb615"/></g><g transform="translate(279.275 117.988)"><path d="M452.779,173.8v.273a3.518,3.518,0,0,1-.078.818,14.432,14.432,0,0,1-2.492,6.541,9.231,9.231,0,0,1-1.713,1.791,7.286,7.286,0,0,1-2.375,1.246l-.156.039h-.039c-.078.039.117-.039.078-.039h-.039l-.078.039-.273.078-.545.195c-.234.156-.506.234-.779.389a9.039,9.039,0,0,0-1.558,1.168,2.518,2.518,0,0,1-.35.311l-.35.35-.35.35c-.117.117-.195.234-.311.35l-.584.7c-.195.234-.35.467-.545.7a6.892,6.892,0,0,0-.467.662c-.156.195-.273.428-.428.584a8.807,8.807,0,0,0-.662,1.012c-.389.584-.584.9-.584.9a1.246,1.246,0,0,1,.039-.273c.039-.195.039-.467.117-.779.078-.35.156-.74.273-1.207s.311-.973.506-1.557a8.327,8.327,0,0,1,.389-.857c.156-.312.312-.584.467-.9.078-.156.195-.312.273-.467.117-.156.195-.311.311-.467s.195-.312.312-.467a2.04,2.04,0,0,1,.389-.428,5.935,5.935,0,0,1,.857-.857,5,5,0,0,1,1.012-.779c.156-.117.389-.234.584-.35a4.651,4.651,0,0,1,.623-.311l.545-.195.273-.117.078-.039h.039l.117-.039.117-.039a6.059,6.059,0,0,0,1.674-.818,11.278,11.278,0,0,0,1.48-1.285,21.091,21.091,0,0,0,2.258-2.92c.623-.935,1.09-1.752,1.441-2.375C452.585,174.15,452.779,173.8,452.779,173.8Z" transform="translate(-438.1 -173.8)" fill="#fbb615"/></g><g transform="translate(217.521 127.178)"><path d="M279.5,197.4s.273.35.779.973c.506.584,1.207,1.441,2.064,2.414a23.391,23.391,0,0,0,3.193,2.881,12.446,12.446,0,0,0,1.986,1.129,8.247,8.247,0,0,0,2.142.545l.662.078c.117,0,.234.039.389.039l.389.078c.506.117.973.273,1.441.428a9.383,9.383,0,0,1,2.453,1.4,14.018,14.018,0,0,1,3.232,3.5,15.725,15.725,0,0,1,1.557,2.92c.156.35.234.662.312.857a.936.936,0,0,1,.078.311s-.311-.35-.818-.9c-.545-.584-1.285-1.363-2.219-2.258a20.371,20.371,0,0,0-3.388-2.609,11.05,11.05,0,0,0-2.064-.973,11.178,11.178,0,0,0-1.09-.273l-.234-.039c-.078,0-.156-.039-.273-.039l-.662-.039a7.931,7.931,0,0,1-2.92-.818,10.291,10.291,0,0,1-2.336-1.6,14.634,14.634,0,0,1-2.959-3.738,18.082,18.082,0,0,1-1.363-3c-.117-.389-.195-.662-.273-.9A2.512,2.512,0,0,0,279.5,197.4Z" transform="translate(-279.5 -197.4)" fill="#fbb615"/></g><g transform="translate(287.997 137.301)"><path d="M460.5,235.743a2.323,2.323,0,0,1,.117-.273,5.611,5.611,0,0,1,.428-.779,15.284,15.284,0,0,1,1.947-2.609,13.786,13.786,0,0,1,3.66-2.959,9.108,9.108,0,0,1,2.609-1.012,7.755,7.755,0,0,1,3-.117l.623.078c.117.039.195,0,.273.039h.779a2.572,2.572,0,0,0,.545-.039,10.362,10.362,0,0,0,2.18-.467,18.244,18.244,0,0,0,3.816-1.791c1.09-.662,1.986-1.246,2.609-1.713a8.657,8.657,0,0,1,.74-.506c.156-.117.273-.195.273-.195a1.08,1.08,0,0,1-.156.273c-.117.195-.273.467-.467.779a14.516,14.516,0,0,1-2.1,2.492,13.948,13.948,0,0,1-3.894,2.687,11.386,11.386,0,0,1-2.687.818,9.11,9.11,0,0,1-1.48.117l-.389-.039a1.325,1.325,0,0,1-.389-.039l-.662-.078a6.591,6.591,0,0,0-2.142.039,8.518,8.518,0,0,0-2.142.662,23.121,23.121,0,0,0-3.66,2.064c-1.051.74-1.908,1.4-2.492,1.869A11.166,11.166,0,0,0,460.5,235.743Z" transform="translate(-460.5 -223.4)" fill="#fbb615"/></g><g transform="translate(191.394 224.427)"><path d="M212.4,469.683s.584.428,1.713,1.168,2.8,1.791,4.984,3.037,4.867,2.687,8.021,4.127a104.972,104.972,0,0,0,10.747,4.244c2.025.662,4.088,1.285,6.308,1.83,2.181.545,4.478,1.051,6.814,1.48,2.375.389,4.789.74,7.281.934,2.492.234,5.023.311,7.593.311,1.285,0,2.609-.039,3.894-.117l.973-.078h.428l.506-.039.506-.039c.156,0,.35-.039.506-.039l.9-.117a47.215,47.215,0,0,0,7.476-1.752A49.723,49.723,0,0,0,288.4,481.6a77.287,77.287,0,0,0,7.164-4.011c2.336-1.441,4.672-3,6.97-4.633s4.556-3.271,6.814-4.984c4.517-3.349,8.994-6.775,13.55-9.89a79.319,79.319,0,0,1,14.1-7.943,31.65,31.65,0,0,1,3.66-1.324c.623-.195,1.246-.35,1.83-.545.623-.156,1.207-.312,1.83-.428a30.978,30.978,0,0,1,7.242-.662c.273,0,.584.039.857.039l.428.039h.273l.195.039c.273.039.545.039.779.078l.389.039.428.039c.545.078,1.129.156,1.635.273.273.039.506.117.779.156.273.078.506.117.779.195a27.15,27.15,0,0,1,5.529,2.025,30.62,30.62,0,0,1,7.671,5.412,33.367,33.367,0,0,1,3.855,4.517,14.3,14.3,0,0,1,1.09,1.791,13.334,13.334,0,0,0-1.4-1.519,28.75,28.75,0,0,0-4.4-3.738,31.325,31.325,0,0,0-7.826-4.049,25.853,25.853,0,0,0-5.179-1.207c-.234-.039-.467-.039-.7-.078-.234,0-.467-.039-.7-.039-.467-.039-.934-.039-1.4-.078h-1.83l-.389.039c-.234.039-.506.039-.74.078a27.447,27.447,0,0,0-6.074,1.441,42.75,42.75,0,0,0-6.152,2.765,94.731,94.731,0,0,0-12.343,8.488c-4.166,3.271-8.41,6.853-12.888,10.435-2.258,1.791-4.517,3.582-6.931,5.3-2.375,1.713-4.828,3.426-7.4,5.023-2.57,1.557-5.218,3.037-7.982,4.361a61.6,61.6,0,0,1-8.566,3.271c-.74.234-1.48.389-2.219.584-.74.156-1.48.35-2.258.467a35.6,35.6,0,0,1-4.556.623l-1.168.078c-.195,0-.389.039-.545.039l-.506.039h-2.219c-1.441,0-2.881-.039-4.283-.117s-2.8-.195-4.205-.311c-1.363-.156-2.726-.35-4.088-.545-1.324-.195-2.648-.467-3.933-.74s-2.57-.584-3.816-.934A79.867,79.867,0,0,1,236,486.542c-2.025-.934-3.894-1.908-5.646-2.92s-3.388-1.986-4.867-3c-1.48-.973-2.881-1.947-4.088-2.881-1.246-.934-2.336-1.83-3.31-2.648-1.947-1.635-3.388-3.037-4.361-4.011A15.155,15.155,0,0,1,212.4,469.683Z" transform="translate(-212.4 -447.162)" fill="#2b4e9e"/></g><path d="M204.008,206.687a90.93,90.93,0,1,1,169.181.039" transform="translate(-12.029)" fill="none"/></g></svg>